<?xml version="1.0" encoding="UTF-8"?>
<svg width="35px" height="35px" viewBox="0 0 35 35" version="1.1" xmlns="http://www.w3.org/2000/svg" xmlns:xlink="http://www.w3.org/1999/xlink">
    <title>icon-invisible</title>
    <defs>
        <linearGradient x1="85.8711381%" y1="-1.11022302e-14%" x2="9.15884832%" y2="100%" id="linearGradient-1">
            <stop stop-color="#5A31DE" offset="0%"></stop>
            <stop stop-color="#2E16BA" offset="100%"></stop>
        </linearGradient>
    </defs>
    <g id="UI" stroke="none" stroke-width="1" fill="none" fill-rule="evenodd">
        <g id="Conectar" transform="translate(-1032.000000, -445.000000)">
            <g id="icon-invisible" transform="translate(1032.000000, 445.000000)">
                <circle id="Oval" fill="url(#linearGradient-1)" cx="17.5" cy="17.5" r="17.5"></circle>
                <g id="eye-off" transform="translate(8.000000, 8.000000)" stroke="#FFFFFF" stroke-linecap="round" stroke-linejoin="round" stroke-width="1.72727273">
                    <path d="M14.63,14.63 C13.1536913,15.7553201 11.3560474,16.3787455 9.5,16.4090909 C3.45454545,16.4090909 0,9.5 0,9.5 C1.07426855,7.4980008 2.56425334,5.74888821 4.37,4.37 M7.68636364,2.79818182 C8.28083244,2.65903231 8.88946442,2.58947437 9.5,2.59088734 C15.5454545,2.59088734 19,9.5 19,9.5 C18.4757551,10.4807518 17.8505479,11.4040903 17.1345455,12.255 M11.3309091,11.3309091 C10.6850107,12.0240746 9.71226267,12.3094063 8.79427468,12.0749682 C7.87628669,11.8405302 7.15946979,11.1237133 6.92503176,10.2057253 C6.69059374,9.28773733 6.97592539,8.31498928 7.66909091,7.66909091" id="Shape"></path>
                    <line x1="0" y1="0" x2="19" y2="19" id="Path"></line>
                </g>
            </g>
        </g>
    </g>
</svg>