<?xml version="1.0" encoding="UTF-8"?>
<svg width="35px" height="35px" viewBox="0 0 35 35" version="1.1" xmlns="http://www.w3.org/2000/svg" xmlns:xlink="http://www.w3.org/1999/xlink">
    <title>icon-transfer</title>
    <defs>
        <linearGradient x1="85.8711381%" y1="-1.11022302e-14%" x2="9.15884832%" y2="100%" id="linearGradient-1">
            <stop stop-color="#5A31DE" offset="0%"></stop>
            <stop stop-color="#2E16BA" offset="100%"></stop>
        </linearGradient>
    </defs>
    <g id="UI" stroke="none" stroke-width="1" fill="none" fill-rule="evenodd">
        <g id="Conectar" transform="translate(-1032.000000, -345.000000)">
            <g id="icon-transfer" transform="translate(1032.000000, 345.000000)">
                <circle id="Oval" fill="url(#linearGradient-1)" cx="17.5" cy="17.5" r="17.5"></circle>
                <path d="M26.7823071,12.1409043 C26.7820844,12.1406781 26.7818989,12.1404142 26.7816391,12.140188 L22.9035629,8.21955298 C22.6130338,7.92584464 22.143118,7.92693789 21.8539248,8.22211647 C21.5647687,8.51725735 21.5658819,8.99463236 21.8564111,9.2883784 L24.460152,11.9206324 L8.74218713,11.9206324 C8.33227718,11.9206324 8,12.258184 8,12.6746007 C8,13.0910174 8.33227718,13.428569 8.74218713,13.428569 L24.4601149,13.428569 L21.8564482,16.060823 C21.565919,16.354569 21.5648058,16.8319441 21.8539619,17.1270849 C22.1431551,17.4223012 22.613108,17.4233191 22.9036,17.1296484 L26.7816762,13.2090134 C26.7818989,13.2087872 26.7820844,13.2085233 26.7823442,13.2082971 C27.0730218,12.9135709 27.0720941,12.4346503 26.7823071,12.1409043 Z M8.21769291,21.7917029 L12.0964371,17.8703517 C12.3869662,17.5766433 12.856882,17.5777366 13.1460752,17.8729151 C13.4352313,18.168056 13.4341181,18.645431 13.1435889,18.9391771 L10.539848,21.5714311 L26.2578129,21.5714311 C26.6677228,21.5714311 27,21.9089827 27,22.3253994 C27,22.7418161 26.6677228,23.0793677 26.2578129,23.0793677 L10.5398851,23.0793677 L13.1435518,25.7116217 C13.434081,26.0053677 13.4351942,26.4827427 13.1460381,26.7778836 C12.8568449,27.0730999 12.386892,27.0741178 12.0964,26.7804471 L8.21832377,22.8598121 C7.92697821,22.5643696 7.92790595,22.085449 8.21769291,21.7917029 Z" id="Combined-Shape" fill="#FFFFFF" fill-rule="nonzero"></path>
            </g>
        </g>
    </g>
</svg>