<?xml version="1.0" encoding="UTF-8"?>
<svg width="88px" height="75px" viewBox="0 0 88 75" version="1.1" xmlns="http://www.w3.org/2000/svg" xmlns:xlink="http://www.w3.org/1999/xlink">
    <title>icon-connection-error</title>
    <g id="UI" stroke="none" stroke-width="1" fill="none" fill-rule="evenodd">
        <g id="Error-banco-no-soportado" transform="translate(-680.000000, -286.000000)">
            <g id="Group-2" transform="translate(470.000000, 215.000000)">
                <g id="Group" transform="translate(210.000000, 71.000000)">
                    <g id="bank-(1)" fill-rule="nonzero">
                        <rect id="Rectangle" fill="#FFC37B" x="27.2340426" y="27.2727273" width="6.80851064" height="39.2045455"></rect>
                        <g id="Group" transform="translate(25.531915, 28.977273)" fill="#ED9C3B">
                            <path d="M9.13685857,4.80269012 L1.07590739,4.80269012 C0.481711725,4.80269012 0,4.3135595 0,3.71021256 L0,0 L10.212766,0 L10.212766,3.71021256 C10.212766,4.31371098 9.73105423,4.80269012 9.13685857,4.80269012 Z" id="Path"></path>
                            <path d="M10.212766,35.7954545 L0,35.7954545 L0,32.085242 C0,31.481895 0.481711725,30.9927644 1.07590739,30.9927644 L9.13685857,30.9927644 C9.73105423,30.9927644 10.212766,31.481895 10.212766,32.085242 L10.212766,35.7954545 L10.212766,35.7954545 Z" id="Path"></path>
                        </g>
                        <rect id="Rectangle" fill="#FFC37B" x="44.2553191" y="27.2727273" width="6.80851064" height="39.2045455"></rect>
                        <g id="Group" transform="translate(42.553191, 28.977273)" fill="#ED9C3B">
                            <path d="M9.13685857,4.80269012 L1.07590739,4.80269012 C0.481711725,4.80269012 0,4.3135595 0,3.71021256 L0,0 L10.212766,0 L10.212766,3.71021256 C10.212766,4.31371098 9.73105423,4.80269012 9.13685857,4.80269012 Z" id="Path"></path>
                            <path d="M10.212766,35.7954545 L0,35.7954545 L0,32.085242 C0,31.481895 0.481711725,30.9927644 1.07590739,30.9927644 L9.13685857,30.9927644 C9.73105423,30.9927644 10.212766,31.481895 10.212766,32.085242 L10.212766,35.7954545 Z" id="Path"></path>
                        </g>
                        <rect id="Rectangle" fill="#FFC37B" x="61.2765957" y="27.2727273" width="6.80851064" height="39.2045455"></rect>
                        <g id="Group" transform="translate(59.574468, 28.977273)" fill="#ED9C3B">
                            <path d="M9.13685857,4.80269012 L1.07590739,4.80269012 C0.481711725,4.80269012 0,4.3135595 0,3.71021256 L0,0 L10.212766,0 L10.212766,3.71021256 C10.212766,4.31371098 9.73105423,4.80269012 9.13685857,4.80269012 Z" id="Path"></path>
                            <path d="M10.212766,35.7954545 L0,35.7954545 L0,32.085242 C0,31.481895 0.481711725,30.9927644 1.07590739,30.9927644 L9.13685857,30.9927644 C9.73105423,30.9927644 10.212766,31.481895 10.212766,32.085242 L10.212766,35.7954545 Z" id="Path"></path>
                        </g>
                        <rect id="Rectangle" fill="#FFC37B" x="11.9148936" y="27.2727273" width="6.80851064" height="39.2045455"></rect>
                        <g id="Group" transform="translate(10.212766, 28.977273)" fill="#ED9C3B">
                            <path d="M9.13700775,4.80269012 L1.07590739,4.80269012 C0.481711725,4.80269012 0,4.3135595 0,3.71021256 L0,0 L10.212766,0 L10.212766,3.71021256 C10.212766,4.31371098 9.73120342,4.80269012 9.13700775,4.80269012 Z" id="Path"></path>
                            <path d="M10.212766,35.7954545 L0,35.7954545 L0,32.085242 C0,31.481895 0.481711725,30.9927644 1.07590739,30.9927644 L9.13685857,30.9927644 C9.73105423,30.9927644 10.212766,31.481895 10.212766,32.085242 L10.212766,35.7954545 L10.212766,35.7954545 Z" id="Path"></path>
                        </g>
                        <path d="M73.8082729,28.9772727 L4.48975337,28.9772727 C3.89018891,28.9772727 3.40425532,28.490469 3.40425532,27.8901754 L3.40425532,23.2461882 C3.40425532,22.6457404 3.89034288,22.1590909 4.48975337,22.1590909 L73.8081189,22.1590909 C74.4076834,22.1590909 74.893617,22.6458946 74.893617,23.2461882 L74.893617,27.8901754 C74.893617,28.490469 74.4078374,28.9772727 73.8082729,28.9772727 Z" id="Path" fill="#FFC37B"></path>
                        <path d="M73.8167271,22.1590909 L66.3829787,22.1590909 L66.3829787,28.9772727 L73.8167271,28.9772727 C74.4115369,28.9772727 74.893617,28.49048 74.893617,27.8902 L74.893617,23.2463178 C74.893617,22.6458836 74.4115369,22.1590909 73.8167271,22.1590909 Z" id="Path" fill="#F3AB54"></path>
                        <path d="M76.5957447,69.8863636 L3.40425532,69.8863636 L3.40425532,66.5703025 C3.40425532,65.5774848 4.15104884,64.7727273 5.07235719,64.7727273 L74.9276428,64.7727273 C75.8489512,64.7727273 76.5957447,65.5774848 76.5957447,66.5703025 L76.5957447,69.8863636 L76.5957447,69.8863636 Z" id="Path" fill="#FFC37B"></path>
                        <path d="M74.9489432,64.7727273 L68.0851064,64.7727273 L68.0851064,69.8863636 L76.5957447,69.8863636 L76.5957447,66.5703025 C76.5958974,65.5774848 75.8585715,64.7727273 74.9489432,64.7727273 Z" id="Path" fill="#F3AB54"></path>
                        <path d="M79.4210949,75 L0.57874887,75 C0.259061994,75 0,74.7234115 0,74.3824691 L0,71.6839389 C0,70.6911212 0.754217277,69.8863636 1.68468421,69.8863636 L78.3153158,69.8863636 C79.2457827,69.8863636 80,70.6911212 80,71.6839389 L80,74.3824691 C80,74.7235782 79.7406255,75 79.4210949,75 Z" id="Path" fill="#ED9C3B"></path>
                        <path d="M78.3455373,69.8863636 L71.4893617,69.8863636 L71.4893617,75 L79.4315806,75 C79.7455617,75 80,74.7234115 80,74.3823023 L80,71.6837721 C80.0001534,70.6911212 79.2593974,69.8863636 78.3455373,69.8863636 Z" id="Path" fill="#E8932E"></path>
                        <path d="M39.1903221,0.134843103 L0.350247524,20.5393794 C0.134887449,20.6525162 0,20.8758731 0,21.1193398 L0,23.2087631 C0,23.5704324 0.292767077,23.8636364 0.653897566,23.8636364 L77.6439748,23.8636364 C78.0051053,23.8636364 78.2978723,23.5704324 78.2978723,23.2087631 L78.2978723,21.11366 C78.2978723,20.8731099 78.1662038,20.6519022 77.9549823,20.5375373 L40.2962459,0.141751049 C39.9518231,-0.0447634832 39.5371974,-0.0473731515 39.1903221,0.134843103 Z" id="Path" fill="#ED9C3B"></path>
                        <path d="M77.9541173,20.5375482 L40.2003829,0.141828849 C39.8550912,-0.0446850719 39.4394196,-0.0474482411 39.0916693,0.134767416 L32.3404255,3.67254504 L69.7153687,23.8636364 L77.6423253,23.8636364 C78.0043667,23.8636364 78.2978723,23.5704334 78.2978723,23.2086118 L78.2978723,21.1135155 C78.2978723,20.8731198 78.1658716,20.6519127 77.9541173,20.5375482 Z" id="Path" fill="#E0861A" opacity="0.760144188"></path>
                    </g>
                    <g id="Group-3" transform="translate(53.000000, 11.000000)">
                        <circle id="Oval" fill="#333333" fill-rule="nonzero" cx="17.5" cy="17.5" r="17.5"></circle>
                        <g id="Group-4" transform="translate(17.500000, 17.500000) rotate(45.000000) translate(-17.500000, -17.500000) translate(9.000000, 9.000000)" stroke="#FFFFFF" stroke-linecap="round" stroke-linejoin="round" stroke-width="3">
                            <line x1="8.5" y1="0.5" x2="8.5" y2="16.5" id="Line"></line>
                            <line x1="8.5" y1="0.5" x2="8.5" y2="16.5" id="Line-Copy" transform="translate(8.500000, 8.500000) rotate(-90.000000) translate(-8.500000, -8.500000) "></line>
                        </g>
                    </g>
                </g>
            </g>
        </g>
    </g>
</svg>